<svg id="Слой_1" data-name="Слой 1" xmlns="http://www.w3.org/2000/svg" viewBox="0 0 275.02 129.54"><defs><style>.cls-1{fill:#d4d8dd;}.cls-1,.cls-11,.cls-12,.cls-13,.cls-14,.cls-15,.cls-16,.cls-17,.cls-2,.cls-3,.cls-4,.cls-5,.cls-6,.cls-8{fill-rule:evenodd;}.cls-2{fill:#caced3;}.cls-4,.cls-6{stroke:#000;stroke-width:0.22px;}.cls-4,.cls-6,.cls-8{stroke-miterlimit:22.93;}.cls-5,.cls-6{fill:#fff;}.cls-7{fill:#4f4f4f;}.cls-8,.cls-9{stroke:#fff;}.cls-8{stroke-width:1.42px;}.cls-9{fill:none;stroke-linecap:round;stroke-linejoin:round;stroke-width:2.13px;}.cls-10{fill:#64a594;}.cls-11{fill:#fdfdfd;}.cls-12{fill:#201600;}.cls-13{fill:#fcfbfb;}.cls-14{fill:#f9f8f8;}.cls-15{fill:#312e2f;}.cls-16{fill:#363333;}.cls-17{fill:#f8f7f7;}</style></defs><title>logo</title><path class="cls-1" d="M140.38,98.94c-1.71,5.57-4.38,13-8,17.79-9,11.82-22.58,18.59-37.52,20.17V117c14.43-1.59,27.12-10.45,32-24.11a38.07,38.07,0,0,1,7.15,3c.3.19,6.2,2.78,6.38,3.05Z" transform="translate(-13.04 -7.89)"/><path class="cls-1" d="M84.93,137.43A76.82,76.82,0,0,1,42,121.6a79.75,79.75,0,0,1-16.54-16.84L44.56,93.82a57.31,57.31,0,0,0,12,12.23,55.74,55.74,0,0,0,28.39,11.23v20.15Z" transform="translate(-13.04 -7.89)"/><path class="cls-1" d="M44.68,41.43c-.44.51-.86,1-1.27,1.56-9.15,12-9.65,28.13-2.83,42.5L21.26,96.58C10,75.78,9.95,51.61,23.42,34q1.29-1.69,2.7-3.23L44.68,41.43Z" transform="translate(-13.04 -7.89)"/><path class="cls-2" d="M140.92,96.75c-1.71,5.57-4.38,13-8,17.79-9,11.82-22.58,18.59-37.52,20.17V114.79c14.43-1.59,27.12-10.45,32-24.11a38,38,0,0,1,7.15,3c.3.19,6.2,2.78,6.38,3.05Z" transform="translate(-13.04 -7.89)"/><path class="cls-1" d="M88.35,28.24c-12.07-2.54-24.17-.69-33.52,5.41L36.16,22.94C50.29,12.65,69.52,9.83,88.35,14.75V28.24Z" transform="translate(-13.04 -7.89)"/><path class="cls-1" d="M114.42,27.17a81.31,81.31,0,0,1,9.75,8.68L114.1,41.63a59.12,59.12,0,0,0-4.94-4.18,58,58,0,0,0-12.74-7.33V16.88a80.41,80.41,0,0,1,18,10.3Z" transform="translate(-13.04 -7.89)"/><path class="cls-2" d="M88.11,134.67a76.82,76.82,0,0,1-42.91-15.83A79.8,79.8,0,0,1,28.66,102L47.73,91.06a57.32,57.32,0,0,0,12,12.23,55.7,55.7,0,0,0,28.39,11.23v20.15Z" transform="translate(-13.04 -7.89)"/><path class="cls-2" d="M46.94,38.72q-.65.76-1.27,1.56c-9.15,12-9.65,28.13-2.83,42.5L23.53,93.86c-11.29-20.8-11.32-45,2.15-62.56q1.29-1.68,2.7-3.23L46.94,38.72Z" transform="translate(-13.04 -7.89)"/><path class="cls-2" d="M89.86,25.91c-12.07-2.55-24.17-.69-33.52,5.41L37.68,20.61C51.8,10.32,71,7.5,89.86,12.43V25.91Z" transform="translate(-13.04 -7.89)"/><path class="cls-2" d="M115.77,26.65a81.1,81.1,0,0,1,9.75,8.68l-10.07,5.78a58.65,58.65,0,0,0-4.94-4.18,57.87,57.87,0,0,0-12.74-7.33V16.35a80.38,80.38,0,0,1,18,10.3Z" transform="translate(-13.04 -7.89)"/><path class="cls-3" d="M91.29,131.91a76.83,76.83,0,0,1-42.91-15.83A79.78,79.78,0,0,1,31.84,99.24L50.91,88.3a57.33,57.33,0,0,0,12,12.23,55.7,55.7,0,0,0,28.39,11.23v20.15Z" transform="translate(-13.04 -7.89)"/><path class="cls-3" d="M142,94.36c-1.71,5.57-4.38,13-8,17.79-9,11.82-22.58,18.59-37.52,20.17V112.4c14.43-1.59,27.12-10.45,32-24.11,1.25.26,13.2,5.54,13.53,6.06Z" transform="translate(-13.04 -7.89)"/><path class="cls-3" d="M50.12,36q-.65.76-1.27,1.56C39.7,49.47,39.2,65.64,46,80L26.71,91.1c-11.29-20.81-11.32-45,2.15-62.56q1.29-1.69,2.7-3.23L50.12,36Z" transform="translate(-13.04 -7.89)"/><path class="cls-4" d="M91.29,23.84c-12.07-2.54-24.17-.69-33.52,5.41L39.1,18.54C53.22,8.26,72.45,5.43,91.29,10.36V23.84Z" transform="translate(-13.04 -7.89)"/><path class="cls-3" d="M118.94,23.89a81.23,81.23,0,0,1,9.75,8.68l-10.07,5.78a59.25,59.25,0,0,0-4.94-4.18,57.94,57.94,0,0,0-12.74-7.33V13.59a80.42,80.42,0,0,1,18,10.3Z" transform="translate(-13.04 -7.89)"/><path class="cls-5" d="M118,24.39a61.08,61.08,0,0,0-13.67-7.82V26.63a44.46,44.46,0,0,1,13.43,8.73L125.36,31a61.52,61.52,0,0,0-7.4-6.59Zm.34-.17a68.1,68.1,0,0,1,8.22,7.32L118,36.4a49.6,49.6,0,0,0-14.9-9.7V15.53a67.75,67.75,0,0,1,15.17,8.68Z" transform="translate(-13.04 -7.89)"/><path class="cls-5" d="M87.55,21.24V12C72.93,8.2,56,10.55,45,18.55L58.61,26.4c7.26-4.74,19.57-7.13,28.94-5.16Zm1.27,1.07c-10.24-2.16-22.32-.18-30.25,5l-15.5-8.75c12-8.73,29.7-11.2,45.67-7l.08,10.78Z" transform="translate(-13.04 -7.89)"/><path class="cls-6" d="M45.3,38.22,32,31C19.47,46.14,19.91,68.16,28,85.42L41.59,78C36,66.16,36.48,48.5,45.3,38.22Zm2-.64c-9.42,11-9.77,28.41-3.79,41L27.59,87.25c-9.19-18.43-9.51-41.93,4.29-58.11l15.41,8.43Z" transform="translate(-13.04 -7.89)"/><path class="cls-5" d="M86,128l.62-14c-13.14-1.2-28.1-10.71-35.73-21.32l-13.12,7.5C49.18,115.18,66.82,125.8,86,128Zm1.94,1.44A71.46,71.46,0,0,1,35.86,99.81l15.26-8.56c8.25,11.48,23.08,20.33,37.3,21.62l-.5,16.56Z" transform="translate(-13.04 -7.89)"/><path class="cls-7" d="M224.32,101.89h5.45v15.78h8.53v5.14h-14V101.89Zm20.89,0H259.8v4.47h-9.12v3.33h8.45V114h-8.45v4.12h9.39v4.73H245.21V101.89Zm21,0h6l3.13,6.44,3-6.44h5.94L278.88,112l6,10.79h-6.14l-3.46-6.72-3.49,6.72h-6.09l6.08-10.9-5.54-10Z" transform="translate(-13.04 -7.89)"/><path class="cls-8" d="M139.5,95.19c-1.5,4.89-5.06,12.68-8.29,16.89-7.94,10.38-18.87,15.89-32,17.28l-.53-16.1c12.67-1.4,26.6-10.56,30.92-22.55a92.9,92.9,0,0,1,9.88,4.48Z" transform="translate(-13.04 -7.89)"/><path class="cls-9" d="M100.61,88.06q0,9.21,9.41,9.2v2.33H75V97.26q9.26,0,9.26-9.2V70.88L65,33.25q-2.79-5.17-6.59-5.17V25.71H91.69v2.36c-5.57,0-8.37,1.28-8.37,3.84a7.06,7.06,0,0,0,.5,2L98.07,62.21l13.39-23a12.89,12.89,0,0,0,1.86-6q0-5.17-8.32-5.17V25.71h22.57v2.36a7.76,7.76,0,0,0-4.24,1.58,10.87,10.87,0,0,0-3.58,3.92L100.61,66.91V88.06Zm72.66-62.35q25.42,0,33.7,21.38a37.2,37.2,0,0,1,2.38,13.84,48.54,48.54,0,0,1-3.11,17.12,31,31,0,0,1-9,13.2q-10.16,8.34-21.49,8.34h-34V97.26A8,8,0,0,0,148,94.81a9.65,9.65,0,0,0,2.25-6.73V37.22a9.52,9.52,0,0,0-2.22-6.7,8,8,0,0,0-6.28-2.45V25.71Zm-6.9,63.71c0,3.09.21,5,.65,5.64s1.67,1,3.74,1q9.45,0,13.13-4.06a26.27,26.27,0,0,0,5.57-10.12,67.64,67.64,0,0,0,2.8-20.18,65.84,65.84,0,0,0-1.67-15.26,27.18,27.18,0,0,0-4.92-11.09q-3.26-4.17-6.35-5.17a27.89,27.89,0,0,0-8.55-1c-2.07,0-3.32.33-3.74,1s-.65,2.56-.65,5.67V89.42ZM287,74.91l-4.05,24.68H224.74V97.29a7.8,7.8,0,0,0,6.09-2.47,9.64,9.64,0,0,0,2.22-6.73V37.22a9.63,9.63,0,0,0-2.2-6.7,7.77,7.77,0,0,0-6.12-2.45V25.71h33v2.36a7.94,7.94,0,0,0-6.25,2.47,9.55,9.55,0,0,0-2.25,6.67V88.61A6.73,6.73,0,0,0,252,94.06a9,9,0,0,0,5.75,2.2c5.2,0,9.44-.75,12.68-2.22a19.24,19.24,0,0,0,8-6.78,58.09,58.09,0,0,0,6.14-12.34Z" transform="translate(-13.04 -7.89)"/><path class="cls-10" d="M100.61,88.06q0,9.21,9.41,9.2v2.33H75V97.26q9.26,0,9.26-9.2V70.88L65,33.25q-2.79-5.17-6.59-5.17V25.71H91.69v2.36c-5.57,0-8.37,1.28-8.37,3.84a7.06,7.06,0,0,0,.5,2L98.07,62.21l13.39-23a12.89,12.89,0,0,0,1.86-6q0-5.17-8.32-5.17V25.71h22.57v2.36a7.76,7.76,0,0,0-4.24,1.58,10.87,10.87,0,0,0-3.58,3.92L100.61,66.91V88.06Zm72.66-62.35q25.42,0,33.7,21.38a37.2,37.2,0,0,1,2.38,13.84,48.54,48.54,0,0,1-3.11,17.12,31,31,0,0,1-9,13.2q-10.16,8.34-21.49,8.34h-34V97.26A8,8,0,0,0,148,94.81a9.65,9.65,0,0,0,2.25-6.73V37.22a9.52,9.52,0,0,0-2.22-6.7,8,8,0,0,0-6.28-2.45V25.71Zm-6.9,63.71c0,3.09.21,5,.65,5.64s1.67,1,3.74,1q9.45,0,13.13-4.06a26.27,26.27,0,0,0,5.57-10.12,67.64,67.64,0,0,0,2.8-20.18,65.84,65.84,0,0,0-1.67-15.26,27.18,27.18,0,0,0-4.92-11.09q-3.26-4.17-6.35-5.17a27.89,27.89,0,0,0-8.55-1c-2.07,0-3.32.33-3.74,1s-.65,2.56-.65,5.67V89.42ZM287,74.91l-4.05,24.68H224.74V97.29a7.8,7.8,0,0,0,6.09-2.47,9.64,9.64,0,0,0,2.22-6.73V37.22a9.63,9.63,0,0,0-2.2-6.7,7.77,7.77,0,0,0-6.12-2.45V25.71h33v2.36a7.94,7.94,0,0,0-6.25,2.47,9.55,9.55,0,0,0-2.25,6.67V88.61A6.73,6.73,0,0,0,252,94.06a9,9,0,0,0,5.75,2.2c5.2,0,9.44-.75,12.68-2.22a19.24,19.24,0,0,0,8-6.78,58.09,58.09,0,0,0,6.14-12.34Z" transform="translate(-13.04 -7.89)"/><path class="cls-3" d="M64.15,90.85a8.32,8.32,0,0,1,1.61-5.24l1-1.28c-.17.49-.55,1-.78,1.52s-.48,1-.7,1.59c-.45,1.15-.76,2.24-1.15,3.41ZM65.52,99a11.74,11.74,0,0,1-2.22-.6,1.13,1.13,0,0,1,.39-.92,18.12,18.12,0,0,0,.88-3.09c.38-1.4.79-2.71,1.25-4,.39-1.13,2.61-6.86,3.14-7.45-.08.52-1.1,3.36-1.35,4.1-.46,1.36-.91,2.75-1.34,4.15a46,46,0,0,0-1.35,5.48c-.13.75-.17.46-.47.92-.55.85.65,1,1.06,1.45Zm1.25-13.22,2.32-5.39c.14-.32.15-.56.5-.64.39.55-.93,2.59-1.2,3.14L67,85.47l-.11.18-.07.09,0,0,0,0Zm-3.85,2.32c-.9-1.21.77-2.43,1.81-3.49A20.76,20.76,0,0,0,67.89,80a14,14,0,0,1,.71-1.31c2,.13-1.69,4.77-1.87,5a13.53,13.53,0,0,1-2.1,2c-.82.66-1.65,1.23-1.71,2.4Zm1.21-12c.09-.27.45-.35.71-.48,1-.5,1.65-1.06,2.33.1a3.36,3.36,0,0,1,.29.91c.07.22.4.4.58.59.47.51-.17,1.25-.4,1.67a18.2,18.2,0,0,1-1.92,2.82c-.33.41-1.94,1.87-2.84,1.89a4.13,4.13,0,0,1,.61-1.46c.28-.56.34-.38,1.07-1a9.17,9.17,0,0,0,1.76-2.52c-.28.11-.57.52-1.23.9-.17.1-1.8,1-1.61.21a2.94,2.94,0,0,1,.82-1.2A7.59,7.59,0,0,0,66,76.2a3.91,3.91,0,0,1-1.9-.07Zm2.38-2.88,4.63,5.22c.29.38.65.69,1,1.07l.67.79c.11.14.16.16.28.28l8,9c.2.23.37.29.47.59-2,.31-4.68-3.35-6-4.84-.59-.69-.46-.54-.37-1.09l-.51.09c-.85-.95-1.79-2.21-2.63-3.15l-2-2.35c-.35-.42-.52-.38-.37-1-.57.07-.32.13-1.14-.86l-1.87-2.31c-.2-.22-.37-.3-.34-.65a2.18,2.18,0,0,1,.2-.82ZM63,74.52a3.24,3.24,0,0,1,.71-.6l.63-.49c.12-.08,0,0,.13-.07a.94.94,0,0,1,.29.49L63,74.52Zm2.71-3.82a1.66,1.66,0,0,1,.62,1.54,7.11,7.11,0,0,1-.27,2c-.11-.21-.11-.47-.25-.72s-.26-.25-.18-.76a10.74,10.74,0,0,0,.07-2Zm.73,1.65a1.34,1.34,0,0,1,1.36.87L66.51,73l-.06-.64Zm0-.62c.22.11.12,0,.29.24a1.56,1.56,0,0,1,.25.34l-.51-.15,0-.43Zm-2.2.25,1.25.21a.86.86,0,0,1-.1.52c-.55.13-1-.41-1.15-.72Zm.57-1.12a.85.85,0,0,1,.42-.34c.43-.08.43.48.3,1.22l-.57-.64s-.14-.24-.14-.24ZM60,67.13a.86.86,0,0,1,.7-.72c.05.32,0,.33-.23.51s-.24.25-.48.21Zm7.17,0c.18-.23.51-.29.93-.5s.56-.29.86-.46c2.46-1.44,3.33-4,3.73-4.46A9.8,9.8,0,0,1,71,65.47a5.31,5.31,0,0,1-3.86,1.68Zm6.93,1.05.4-.95c.11.21,0,0,0,.09a.38.38,0,0,1,0,.14A10,10,0,0,1,75.23,65l.56,3.39c.12-1.52-.16-3.53-.21-5.09a.47.47,0,0,1,.09.15l.77,3.27c.27,1.16.56,2.33.82,3.49,1.1,4.89,2.16,9.28,2.82,14.31,0,.36.15,1.66.23,1.92s.36.33.54.5a5.09,5.09,0,0,1,.5.62,5.29,5.29,0,0,1,1.08,3.19l-.94-1c-.19-.22-.31-.33-.49-.55l-1-1.09c-.75-.89-2.91-3.19-3.41-3.84-.17-.22-.33-.33-.5-.55l-.49-.55c-.34-.37-.61-.7-1-1.1l-2.43-2.73c-.7-.9-3.88-4.23-4.43-5a10.39,10.39,0,0,1-1-1.12,6.26,6.26,0,0,1,1.16.34c.14-.47-.15-.36.22-.69A11.05,11.05,0,0,0,70.51,70c.23-.38.52-1.09.75-1.36-.15,1.39-1.12,2.94-1.34,3.69a21.08,21.08,0,0,0,2.27-5,27.52,27.52,0,0,1-1,4.29,20.7,20.7,0,0,1-.73,2c-.32.77-.9,1.57-.69,1.89l.19-.3c1.4-3.44,3.73-9.77,4-13-.19.33-.86,2.13-1.25,2.91a19.86,19.86,0,0,1-2.41,3.86c-.32.39-.63.77-1,1.13A19.19,19.19,0,0,1,67,72a2,2,0,0,1-.42-.6,19.57,19.57,0,0,0,6.77-11.63c.17-.76.1-1.14,1-.91,1.08.28,1.64-.72,1.19,2.58-.16,1.16-.38,2.33-.63,3.47l-.78,3.27Zm-9.35-7a3.42,3.42,0,0,0,1.4-.7c.21-.16.38-.29.58-.47s.26-.35.52-.52c-.28.93-1.38,2.46-2.73,2.58l.24-.9Zm-.45,2.11c.87.07,1,.4,1.88-.2a3.9,3.9,0,0,0,1.11-1.26c.61-.92,1.28-2.69,2-2.7A21.22,21.22,0,0,1,67.3,63c-1.28,2-2.81,2-3,.32ZM64,64.87c.36.55.37,1,1.33.94,2-.18,3.11-3.16,3.79-4.88a13.44,13.44,0,0,1,.6-1.56c.3-.44,1.19-.25,1.82-.34,1.08-.14,0-.35,1.85-.19.06.84-1.12,3-1.5,3.52a11.78,11.78,0,0,1-5.54,4.49c-1.83.58-2.82,0-2.33-2Zm.62-6.66c0,3-.33,3.2-1.13,6.11-.23.85-.64,2.12,0,2.68s.32.36.71,1a1.92,1.92,0,0,1,.47,1.28c.7-.51,1.39-1.48,2.25-.64a.72.72,0,0,1,0,1.14c-.45.47-.85.28-1.33.06a3.88,3.88,0,0,1-.64.34,3.46,3.46,0,0,0-1.09.94,2.1,2.1,0,0,1-.48.6c.11.77.28,1.5-.74,1.53-.78,0-1.06-.77-.67-1.43a3.78,3.78,0,0,1,.56-.63l1.95-1.76a4.12,4.12,0,0,0-.71-.93c-.1.07,0,0-.12.11l-.23.41c-.32.85,0,1.76-.83,1.72a2.88,2.88,0,0,1-.2-.76c-.08-.32-.25-.35-.27-.68s.17-1.31.22-1.71c.14-1.21,0-.74-.23-1.63-.13-.54,0-3.93,0-4.65,0-1-.23-3.11.26-3.91.22.27.35.7.55,1,.19-1.33-.82-2.81-.07-5.92a10,10,0,0,0,.52-2.21c0-1.37.71-2.57,1.63-2.32.65.18.8,2.68.76,3.37-.05.92-.19.44-.35,1a8.12,8.12,0,0,0-.13,1.26c-.13,1.71-.74,3-.73,4.69Zm12.3-6a16.15,16.15,0,0,0,.78-2.58,5.58,5.58,0,0,1,0,2.59ZM65.78,47.88c1,.54.9,2.39,1,3a5.13,5.13,0,0,0,0-2.33,3.31,3.31,0,0,1,.79.47c-.44-.4-1.47-1.55-1.2-2.24.37,0,.53.28,1.1.72.94.73,2.58,1.95,3.88,1.73-.62-.2-1.42-.32-1.79-.75a13.13,13.13,0,0,0,2.57-.15c.42-.08,1.87-.59,2.07-.55,0,.45-1.1,1.45-1.47,1.71a6.36,6.36,0,0,1-2.23.92,3.89,3.89,0,0,0,3.09-.65l-1.34,2a20.21,20.21,0,0,1-1.46,1.82,10.76,10.76,0,0,1-4.1,2.53c.28-.28.62-.51.88-.8A7.33,7.33,0,0,0,69.37,52l-.62.95c-.26.42-1.76,2.66-2.31,2.13-.26-.25.22-1.53.17-2.75a5.28,5.28,0,0,1-1.2,2.74c.1-.5.32-1.08.43-1.62a13.91,13.91,0,0,0-.05-5.56Zm3.64-1.36c.28-.66-.38-1,.19-1.7.19.74.75,1.37-.19,1.7Zm-1.29-1.43c-.39.6-.39.16-.93,1.22-.42-.42-.63-1-.08-1.32s.75-.17.55-1.41c.17.1,0,0,.18.14a1.08,1.08,0,0,1,.28,1.37Zm.3,1.54c-.15-.26-.56-.69-.3-1.19.15-.27.72-.64.78-.88.11-.46-.49-.81-.58-1a.88.88,0,0,1,.55-1.08c0,.47-.4.76.06,1.17.91.81.41,1.07-.17,1.91-.39.55-.28.52-.28.84a.36.36,0,0,1-.06.26Zm-1.26-5.26c.18.18,0-.17.11.13l0,.17a.78.78,0,0,1,0,.4c-.43,0-.26-.48-.16-.7ZM78.46,45c-.09-.51-.15-.05-.14-1,0-.39,0-.79,0-1.18.3-.14.39,0,.49-.35-.33-.16-.57,0-.86-.19a.44.44,0,0,1,0-.72,9.19,9.19,0,0,1,2,.08,15.22,15.22,0,0,0,4.06-.42c-.05.62-1.2,3.56-1.55,4.92-.07.27-.15.51-.22.82a1.73,1.73,0,0,1-.32.79,9.54,9.54,0,0,1-2.44-.56c.1.29,0,.2.39.29a7.91,7.91,0,0,1,3.22,1.31,10.13,10.13,0,0,1,0-3.39c.12-.65.6-2.51,1-2.76a1.19,1.19,0,0,0,.19.51A6.54,6.54,0,0,0,85,41.1a2.77,2.77,0,0,1,1,.29,37.39,37.39,0,0,1-1.33,8.75c-.18.73-.36.45-.53.4a7.61,7.61,0,0,0-1.35,0,16.47,16.47,0,0,1-4.06-.58,2.87,2.87,0,0,1-.35-.13c-.26-.14-.09,0-.24-.21.18-.27.59-.24,1-.28C78.81,49,77.85,49,78,47l1.16.31-.45-1c.08.33.27.55.37.92-1.23-.13-1.12-.38-1.23-.51s-.14-.1-.31-.23L78,45.29c-.24.39-.31.89-.55,1.12-.06-.11-.06,0,0-.2l.25-.58c.66-1.4.45-1,.46-2.75-.5-.08-.73-.12-1-.44a1.08,1.08,0,0,1,0-1.13c.49-.68,3.11-.44,4.78-.81.72-.16,1.62-.39,2.31-.47-.09.54,0,.55.31.87-.42.38-3.41.66-4.24.66A13.7,13.7,0,0,0,78,41.48a.55.55,0,0,0-.22.87c.17.2.53.18.68.21l.16.07s0,0,.05.05l-.42.09v1.87a.41.41,0,0,0,.06.22c.09.18.07.1.15.18Zm6.86-5v.45c-1.34,1-1.07-1.54,0-.45Zm-17.13.28c-.54,0-.49-.77-.21-1.17,0,0,0,0,.06.13.22.62.33.78.15,1Zm.35-.41a.88.88,0,0,1-.2-.7.8.8,0,0,1,.27-.58l.39.91a1.09,1.09,0,0,1-.46.36Zm1.82-.43a9.87,9.87,0,0,1,4-1.91,1,1,0,0,1,.23.67c-.28.17-.59.31-.89.49l1-.19.18.62a10.36,10.36,0,0,0-1,.32,23.49,23.49,0,0,1-3,0h-.4s0,0,0,0,0,0,0,0ZM71,38.6c.07-.23.18-.4.28-.64s.1-.39.37-.45A1.18,1.18,0,0,1,71,38.6Zm1-1.27c.77-.15,1.14-1.14,1.65,0a8.66,8.66,0,0,1-1.88,1l.23-1Zm14.25-.49c.24.23.08.1.2.38.32.75.12.29.13.77s.07,0,.1.42-.37,1.27-.41,1.74c.71.1,1.53.33,2.25.5s1.83,0,2.6,0l0,.75A14.38,14.38,0,0,1,85,40.93l.18-.21a.54.54,0,0,0,.12-.66l0,0,.09-.05.12-.06c-.08-.56-.13-.29.11-.69-.46,0-1.18.34-1.55.07-.11-.75,1.16-.51,1.67-1-.62.06-1.49.59-2,.23-.13-.33,0-.21-.07-.42s-.08,0-.2-.31,1.44-.68,1.79-1c-.45-.06-.77-.21-1,0s-.38.47-.72.58c0-.39.27-.38.49-.68a2.57,2.57,0,0,0,.2-.35l.12-.4a.09.09,0,0,1,0-.06c2.42.47,1.2.18,1.84.84ZM69.37,38.77c-.12-.15-.12-.1-.12-.37a2.6,2.6,0,0,1,1.33-1.93c.58-.38,2.43-1.07,2.69-.05-.61,0-.75.2-1.08.46s-.73.27-1,.46-.3.69-.58,1-.32,0-.58.86c-.27-.3-.13-.58.12-.83a.75.75,0,0,0,.29-.83c-.5-.16-.74.57-.83.93s0,.25-.23.35Zm-.82-1.3c.91-.64.53-1.51,1.78-1.13-1.55.79-.78,1.21-1.78,1.13Zm16.82-3.1a1.88,1.88,0,0,1-.18.79c-.07.24-.08.49-.3.59-.1-.1-.07.09-.11-.26v-.86l.22-.08c-.26,0-.09,0-.19-.11l0-.76c.16.22.36.5.54.7ZM74.75,42.07c-.2.29,0,.22-.06.57a1.07,1.07,0,0,1-.17.46l-2.61.26c.52.47,1.14.27,1.1,1.29a11,11,0,0,0-.15,2.19l1.21.11c-.11,1.47-4.46,1.33-5.52.82a4.14,4.14,0,0,1-1.29-1c.69.09.81-.08,1.41.14a.55.55,0,0,0,.63-.06c1.49-.84,2.4.88,2.85,0-.74.32-.78-.37-1.08-.86a5.77,5.77,0,0,1-1.28-2.17c.54.14.6.72,1,.77.09-.22-.1-.38,0-.71s.26-.31.43-.62a1.19,1.19,0,0,1-.73-.46c-.47-.48-.1-.2-.72-.43l.05-.52c-.51.08-1.35.33-1.8.06.84-.2,2.71-.36,2.48-1.39l-.56,0c.15.27.13,0,.26.32-.22.46-1.1.64-1.67.76,0-.4.06-.35.3-.52l.4-.35s0,0,0-.05c-.53.13-1.18.64-1.64.65.06-.39.74-.66,1-.87,1.28-1,2.95-.95,4.59-.63l-.28.39.54-.18a7.67,7.67,0,0,1-2.07,1.24,3,3,0,0,0-.73.34A8,8,0,0,0,74.09,40c.52-.41.65-.45.92-.08l.1.13a3.29,3.29,0,0,1-.14-.86,1.59,1.59,0,0,0-.23-.75c-.27-.68.06-1-1-1,0-.47-.21-.33-.31-.59,0-.07.08-1.68-2.17-.9-.78.27-.23.13-1.11,0s-1.38.74-1.76,1c-.18.15-1.55.58-1.31,1.53.12.46.09.19-.14.64a1.65,1.65,0,0,0-.18.79c0,.81,0,.35-.22.76s.16.38.29.56c-.15.65-.35.49.21,1.32A2,2,0,0,0,66.64,44c-.54.29-.39.36-.5,1a5.8,5.8,0,0,1-.22.56c-.1.35,0,.32.09.63-1.63,0-.86.54-1.37.86a3.57,3.57,0,0,0-1.31.93,2.75,2.75,0,0,0-.49,1c-.08.33-.12.92-.18,1.28-.18,1.06-.66,3.28-.71,3.89,0,.22,0,.47,0,.69l-.14,2.15c0,.39-.09,1-.13,1.4s0,.91-.12,1.41c-.13.9-.13,1.9-.23,2.76,0,.25,0,.5,0,.75l-.14,2.16c-.44,0-2.09,1-1.4,1.95.31.4.45.5.77.35,0,.68-.35,1.64.85,2.28l.76.57c.07.08.2.31.28.42a1.62,1.62,0,0,0-.64,1.75c.25.77.65.37.58,1.16a14.36,14.36,0,0,0-.2,3c.11.84,1,1.61.26,3-.16.3-.39.45-.24,1s.77.28-.1,1.71c-.15.25-.33.51-.47.78a1.91,1.91,0,0,0,1.1,2.48c-.57.85-.79,1.21-.08,2.31.22.34.36.28.26.85-.24,1.32-.42,2.62-.7,3.89a32.73,32.73,0,0,1-.93,3.66l-.4,1.27c-.17.34,0,0-.34.29s-.15.36-.48.63-.6.23-.75.43a36.27,36.27,0,0,1,4.88.37,8.4,8.4,0,0,0,1.56.19c-.34-.2-1-.1-1.32-.35.25-.56,2.28-.25,2.56-1.11-.16-.58-1.28-.59-1.31-1.67,0-.55,2.72-10.84,3.06-12.17L69.67,81c.12-.46.14-.92.61-.93.36.3.2.67.11,1.17s-.15.85-.24,1.28c-.17.84-.34,1.72-.52,2.52-.72,3.33-1.53,6.66-2.13,10-.13.74-.48,1.89-.13,2.52s1.28.63,1,1.14c-.13.27-.22.06-.45.34.2.75,1.88.26,2.11.76a12,12,0,0,1-3.55.16c.11.23-.05.05.21.11A27.14,27.14,0,0,0,70.2,100c1.22-.14,2.06.06,3.79,0l2.58-.14c0-.18,0-.2,0-.35.78,0,.47.05.6-.12l-1,.07c.23-.35.93-.41.29-1a4.94,4.94,0,0,0-1.14-.72c.22.47.75.53.77,1.12-.32.25-.48.06-.64.43.24.35.5.2.83.47a16.48,16.48,0,0,1-3.64,0c-.25-.06-.45-.23-.61-.22s-.49.17-.75.2c-.92.08-.77-.47-1.15-.74-.18-.13-.37-.19-.57-.34a3.89,3.89,0,0,1-1.29-1.63,5.06,5.06,0,0,1,0-3.31c.42-2.13.81-4.32,1.21-6.41.21-1.09.41-2.16.61-3.24.1-.54.19-1,.29-1.58.05-.29.11-.55.16-.82s0-.53.31-.68c.7.39.3,2.41.2,3.23-.14,1.08-.29,2.18-.46,3.15l.86-4.58c.15-.83,1.14-.88,1.18.38,0,.92-.15,1.76-.15,2.63.14-.59.24-1.59.75-1.9.66.06,1.38,1.22,1.72,1.8A1.79,1.79,0,0,1,75.35,87c0,.61,0,1.21,0,1.82.25-.43.15-1.18.55-1.76.7-.08,1.18.81,1.57,1.46a6.35,6.35,0,0,1,.9,2.15c.2-.32.17-.81.58-.63.19.24.13.88.14,1.27.14-.19.16-.33.3-.49.65,0,.71.58.81,1.18.19-.28.17-.44.47-.58.31.17.35.6.43,1s.14.8.2,1.2a18.14,18.14,0,0,0,1.23,4.4,1.52,1.52,0,0,0,.64.75,6.82,6.82,0,0,1,.76.65l-1.15,0c.15.1.25.12.36.08a12.75,12.75,0,0,1-2.34,0c-.44-.06-.36,0-.57-.27-.45-.52-.53-.24-1.11-.49s-.61-.5-.9-.79c.11.9.6.89,1.1,1.26-3.88.61-1,.24.11.32.24.06.91,0,1.18,0a9.26,9.26,0,0,0,3.49-.07c-.14-.5-1-.73-1.38-1.41a16.74,16.74,0,0,1-1.19-4.45c-.52-3.59-.12-2.51,1.1-2.48a5.46,5.46,0,0,0-1.7-4.5c-.38-.37-.28-.32-.38-.87-.65-3.45-1.26-7-2-10.49l-1.71-8.24c-.33-1.29-.56-2.73-.9-4-.25-1,.19-2.31-.11-3.5-.13-.53-.22-.47-.45-.81,1.31-.11,1.82-2.3,1.82-3.16-.28.52-.37,1.34-.64,1.9s-.64,1.16-1.46.87c-.06-.2.22-.13.4-.62a2.64,2.64,0,0,1-2.25.73c.31-.25.71-.1,1.46-1.49a9.77,9.77,0,0,0,.81-2.06c-.63.58-1.65,3.8-4.55,3.67,1.19-.78,1.41-1.41,2-2.87a11.4,11.4,0,0,1-2.19,2.36,3.9,3.9,0,0,1-3.65.47c-.06-.8,1.71-1.36,2.37-1.8a9.88,9.88,0,0,0-1.93.5c-1.18.45-1,.68-1.21,1.23-.6-.15-.47-.31-.53-.85-.19.33-.28.05-.21.78-1.13-.24-.19-1.23.33-1.51,1.75-.93,2.65,0,5.34-3.25a19.25,19.25,0,0,0,3.2-5.36c.17-.59.52-2,0-2.38-.16.06-.18.14-.28.26h-.42c.55-.73,1.94-.65,1.9,1a1.67,1.67,0,0,0,.26-.72c0-.38-.1-.45-.33-.6a6.33,6.33,0,0,1,1.56.53l-.29.76c.18-.08,0,0,.17-.14l.25-.52c.13.18.32.24.44.47.44.84-.83,4.89-1.05,5.32-2.17,0-2,.21-1.59-.81a1.87,1.87,0,0,0,.26-.81l-.75,1.68-.47,0a3.42,3.42,0,0,0,1.33,1.08,7.24,7.24,0,0,0,2,.47l-.28,1.43c.18-.15.05.2.24-.65a5.45,5.45,0,0,0,.17-.74c1.73,0,3.65-.45,4.33-1.46-.14-.25,0-.05-.18-.14l0,.2c-.36.18-.69.43-1.11.64a6.59,6.59,0,0,1-1.28.46c-1.14.29-2.17.18-2.44-.82l2.53-.19c-.51,0-1,0-1.47,0-.86,0-1.14.13-1.29-.19l.51-.08h.51c0-.09,0-.26,0-.35l.08-.27c-.19-.92.37-.79,1.1-.74a13.61,13.61,0,0,1,1.75.14,2.73,2.73,0,0,1,.45,1.07c.21.17,0,0,.25.14-.08-.46-.37-.72-.49-1.23,4.05,0,3.45.28,4-1.54a21.66,21.66,0,0,0,.93-4.64c0-.28,0-.5.08-.82l.2-2.65a15.81,15.81,0,0,0,2.45.28c.52,0,.82-.07,1.26-.07l1.37-.07,0-1c.54.14,1.31.53,1.33,1.09a1.29,1.29,0,0,1-.37.84c-.31.42-.19.29-.81.37l3.43,7.77c.29,0,.45,0,.48.25.13-.11.11.17.11-.21-.4-.11-.5-.35-.66-.73s-.31-.67-.46-1l-2.28-5a8.52,8.52,0,0,1-.45-1c.51,0,.43.09.84-.49a1.1,1.1,0,0,0,.25-1c-.12-.41-1.16-1-1.58-1.07v.28a16.83,16.83,0,0,1-2.55,0L86.43,40c0-.54.5-1.4.35-1.73s-.17.05-.08-.36c.06-.24.21-.15-.15-.81-.14-.26-.18-.23-.31-.26,0-.38-.09-.07-.09-.59-.43,0-.55-.24-1-.28a7.62,7.62,0,0,1,.35-1.46l-.07-.07-.08-.06c-.06-.41-.38-.61-.48-1-.23.06-.17.08-.42.42-.8,1.07-.24.78-.14,2-.4,0-.76.68-1,1s-.2.26-.29.4c.61.69.16.55.24.94s.09.09.16.33c.11.43-.13.09.18.8.1.22,0,.15.15.34l.1.1.16.12a2.15,2.15,0,0,0-.54.15,26.19,26.19,0,0,1-3,.55l-2.66.21c-1,.13-1.7,2.15.2,2.15a5.61,5.61,0,0,1-.12,1.9,7.77,7.77,0,0,0-.58,1.44,2.62,2.62,0,0,1-1-.39c-.59-.34-.71,0-1.11-.14s-.51-.3-1.08,0-.34.41-1,.26c-.07-.31,0-2.11.37-2.34s1.09,0,1.28-.89c.06-.28,0-.33,0-.68Z" transform="translate(-13.04 -7.89)"/><path class="cls-11" d="M76.46,99.65l.94,0,1.94-.34c-.5-.36-1-.36-1.1-1.26.3.29.45.6.9.79s.66,0,1.11.49c.21.24.13.21.57.27a12.75,12.75,0,0,0,2.34,0c-.11,0-.2,0-.36-.08l1.15,0a6.82,6.82,0,0,0-.76-.65,1.52,1.52,0,0,1-.64-.75,18.14,18.14,0,0,1-1.23-4.4c-.06-.4-.12-.8-.2-1.2s-.12-.83-.43-1c-.31.14-.28.3-.47.58-.1-.59-.16-1.21-.81-1.18-.14.17-.16.3-.3.49,0-.39.05-1-.14-1.27-.41-.18-.38.31-.58.63a6.35,6.35,0,0,0-.9-2.15c-.39-.64-.87-1.54-1.57-1.46-.39.58-.3,1.34-.55,1.76,0-.61,0-1.21,0-1.82a1.79,1.79,0,0,0-.42-1.29c-.34-.58-1.06-1.74-1.72-1.8-.51.31-.61,1.31-.75,1.9,0-.87.19-1.71.15-2.63,0-1.26-1-1.21-1.18-.38l-.86,4.58c.17-1,.32-2.07.46-3.15.1-.81.49-2.83-.2-3.23-.26.15-.25.35-.31.68s-.11.54-.16.82c-.1.54-.19,1-.29,1.58-.2,1.08-.41,2.15-.61,3.24-.4,2.09-.78,4.28-1.21,6.41a5.06,5.06,0,0,0,0,3.31,3.89,3.89,0,0,0,1.29,1.63c.2.15.39.21.57.34.39.27.23.83,1.15.74.26,0,.59-.18.75-.2s.36.16.61.22a16.48,16.48,0,0,0,3.64,0c-.33-.27-.59-.12-.83-.47.16-.37.31-.18.64-.43,0-.59-.55-.65-.77-1.12a4.94,4.94,0,0,1,1.14.72c.64.58-.06.64-.29,1l.32.14Z" transform="translate(-13.04 -7.89)"/><path class="cls-11" d="M74.86,64.92c.25-1.14.47-2.3.63-3.47.45-3.3-.11-2.3-1.19-2.58-.86-.23-.8.15-1,.91a19.57,19.57,0,0,1-6.77,11.63A2,2,0,0,0,67,72a19.19,19.19,0,0,0,2.28-1.94c.33-.36.64-.74,1-1.13a19.86,19.86,0,0,0,2.41-3.86c.39-.78,1.05-2.58,1.25-2.91-.25,3.21-2.58,9.54-4,13l-.19.3c-.21-.31.37-1.12.69-1.89a20.7,20.7,0,0,0,.73-2,27.52,27.52,0,0,0,1-4.29,21.08,21.08,0,0,1-2.27,5c.21-.75,1.19-2.31,1.34-3.69-.23.27-.52,1-.75,1.36a11.05,11.05,0,0,1-2.34,2.89c-.37.33-.09.22-.22.69a6.26,6.26,0,0,0-1.16-.34,10.39,10.39,0,0,0,1,1.12c.56.75,3.74,4.07,4.43,5L74.61,82c.38.4.65.73,1,1.1l.49.55c.17.21.33.32.5.55.49.64,2.66,3,3.41,3.84l1,1.09c.18.22.29.33.49.55l.94,1a5.29,5.29,0,0,0-1.08-3.19,5.09,5.09,0,0,0-.5-.62c-.18-.17-.45-.26-.54-.5s-.18-1.56-.23-1.92c-.65-5-1.72-9.42-2.82-14.31-.26-1.16-.55-2.33-.82-3.49l-.77-3.27a.47.47,0,0,0-.09-.15c0,1.56.33,3.57.21,5.09L75.23,65a10,10,0,0,0-.67,2.46.38.38,0,0,0,0-.14c-.05-.12.06.12,0-.09l-.4.95.78-3.27Z" transform="translate(-13.04 -7.89)"/><path class="cls-11" d="M77.27,55.6c.1,0,.06.05.06-.12s0,0,0-.2l.28-1.43a7.24,7.24,0,0,1-2-.47,3.42,3.42,0,0,1-1.33-1.08l.47,0,.75-1.68A1.12,1.12,0,0,1,75.6,50l.9-2c.11-.25.2-.65.45-.8l.29-.76a6.33,6.33,0,0,0-1.56-.53c.23.15.36.22.33.6a1.67,1.67,0,0,1-.26.72c0-1.64-1.35-1.73-1.9-1h.42c.1-.13.12-.2.28-.26.54.36.2,1.78,0,2.38a19.25,19.25,0,0,1-3.2,5.36C68.68,56.95,67.77,56,66,56.9c-.52.28-1.46,1.27-.33,1.51-.07-.73,0-.45.21-.78.06.54-.06.7.53.85.21-.55,0-.77,1.21-1.23a9.88,9.88,0,0,1,1.93-.5c-.66.44-2.43,1-2.37,1.8a3.9,3.9,0,0,0,3.65-.47A11.4,11.4,0,0,0,73,55.73c-.57,1.46-.8,2.09-2,2.87,2.9.13,3.92-3.08,4.55-3.67A9.77,9.77,0,0,1,74.79,57c-.75,1.39-1.15,1.24-1.46,1.49a2.64,2.64,0,0,0,2.25-.73c-.18.5-.46.43-.4.62.82.29,1.22-.35,1.46-.87s.36-1.38.64-1.9Z" transform="translate(-13.04 -7.89)"/><path class="cls-11" d="M64.61,58.21c0-1.72.6-3,.73-4.69a8.12,8.12,0,0,1,.13-1.26c.15-.56.29-.07.35-1,0-.69-.11-3.19-.76-3.37-.91-.25-1.6,1-1.63,2.32a10,10,0,0,1-.52,2.21c-.74,3.11.27,4.59.07,5.92-.2-.29-.33-.71-.55-1-.48.8-.23,2.87-.26,3.91,0,.72-.14,4.11,0,4.65.21.89.37.42.23,1.63,0,.4-.23,1.41-.22,1.71s.18.36.27.68a2.88,2.88,0,0,0,.2.76c.79,0,.51-.86.83-1.72l.23-.41c.09-.1,0,0,.12-.11a4.12,4.12,0,0,1,.71.93l-1.95,1.76a3.78,3.78,0,0,0-.56.63c-.39.67-.11,1.46.67,1.43,1,0,.85-.76.74-1.53a2.1,2.1,0,0,0,.48-.6A3.46,3.46,0,0,1,65,70.15a3.88,3.88,0,0,0,.64-.34c.48.21.88.4,1.33-.06a.72.72,0,0,0,0-1.14c-.86-.83-1.55.13-2.25.64A1.92,1.92,0,0,0,64.24,68c-.39-.6-.07-.45-.71-1s-.28-1.83,0-2.68c.79-2.91,1.13-3.09,1.13-6.11Z" transform="translate(-13.04 -7.89)"/><path class="cls-11" d="M79.52,47.23c-.09-.16-.15-.34-.24-.53a6,6,0,0,0-.3-.54c-.24-.39-.34-1-.52-1.1s-.05,0-.15-.18a.41.41,0,0,1-.06-.22V42.78l.42-.09s0-.07-.05-.05l-.16-.07c-.15,0-.5,0-.68-.21a.55.55,0,0,1,.22-.87,13.7,13.7,0,0,1,2.35.08c.83,0,3.82-.27,4.24-.66-.28-.33-.4-.33-.31-.87-.7.08-1.6.31-2.31.47-1.67.37-4.29.12-4.78.81a1.08,1.08,0,0,0,0,1.13c.22.33.45.36,1,.44,0,1.7.19,1.36-.46,2.75l-.25.58c0,.18,0,.1,0,.2.25-.24.32-.74.55-1.12l-.46,1.16c.17.14.21.11.31.23s0,.38,1.23.51c-.1-.37-.28-.58-.37-.92l.45,1L78,47c-.2,2,.76,2,1,2.34-.36,0-.77,0-1,.28.15.22,0,.07.24.21a2.87,2.87,0,0,0,.35.13,16.47,16.47,0,0,0,4.06.58,7.61,7.61,0,0,1,1.35,0c.17,0,.35.33.53-.4A37.39,37.39,0,0,0,86,41.39a2.77,2.77,0,0,0-1-.29,6.54,6.54,0,0,1-.63,2.1,1.19,1.19,0,0,1-.19-.51c-.44.24-.93,2.11-1,2.76a10.13,10.13,0,0,0,0,3.39,7.91,7.91,0,0,0-3.22-1.31c-.35-.09-.3,0-.39-.29Z" transform="translate(-13.04 -7.89)"/><path class="cls-11" d="M67.59,49a3.31,3.31,0,0,0-.79-.47,5.13,5.13,0,0,1,0,2.33c-.07-.6.07-2.45-1-3a13.91,13.91,0,0,1,.05,5.56c-.11.53-.33,1.12-.43,1.62a5.28,5.28,0,0,0,1.2-2.74c.05,1.22-.43,2.5-.17,2.75.56.52,2.05-1.71,2.31-2.13l.62-.95a7.33,7.33,0,0,1-1.78,3.27c-.27.28-.6.51-.88.8a10.76,10.76,0,0,0,4.1-2.53,20.21,20.21,0,0,0,1.46-1.82l1.34-2a3.89,3.89,0,0,1-3.09.65,6.36,6.36,0,0,0,2.23-.92c.37-.26,1.51-1.26,1.47-1.71-.2,0-1.65.47-2.07.55a13.13,13.13,0,0,1-2.57.15c.37.44,1.17.55,1.79.75-1.3.22-2.94-1-3.88-1.73-.57-.44-.73-.76-1.1-.72-.28.69.76,1.84,1.2,2.24Z" transform="translate(-13.04 -7.89)"/><path class="cls-11" d="M74.75,42.07c.06-.08,0,.1.09-.17s0-.07,0-.13a1.74,1.74,0,0,0-.72.06c.23-.2.17-.1.4-.2.58-.27,0-.53.6-1,.23,0,.14,0,.35-.09a.68.68,0,0,0-.12-.3c-.13-.21-.06-.15-.23-.23l-.1-.13c-.27-.37-.4-.33-.92.08a8,8,0,0,1-3.48,1.71,3,3,0,0,1,.73-.34,7.67,7.67,0,0,0,2.07-1.24l-.54.18.28-.39c-1.64-.32-3.31-.37-4.59.63-.26.21-.94.48-1,.87.46,0,1.11-.52,1.64-.65,0,0,0,0,0,.05l-.4.35c-.23.17-.32.13-.3.52.57-.12,1.45-.3,1.67-.76-.13-.3-.11-.05-.26-.32l.56,0c.22,1-1.64,1.19-2.48,1.39.45.27,1.29,0,1.8-.06l-.05.52c.61.23.24-.05.72.43a1.19,1.19,0,0,0,.73.46c-.17.31-.37.29-.43.62s.12.5,0,.71c-.38,0-.45-.63-1-.77A5.77,5.77,0,0,0,71.06,46c.3.49.34,1.17,1.08.86-.45.87-1.36-.85-2.85,0a.55.55,0,0,1-.63.06c-.6-.22-.72,0-1.41-.14a4.14,4.14,0,0,0,1.29,1c1.06.52,5.41.65,5.52-.82l-1.21-.11A11,11,0,0,1,73,44.65c0-1-.57-.82-1.1-1.29l2.61-.26a1.07,1.07,0,0,0,.17-.46c0-.35-.13-.28.06-.57Z" transform="translate(-13.04 -7.89)"/><path class="cls-11" d="M64,64.87c-.48,2,.51,2.56,2.33,2a11.78,11.78,0,0,0,5.54-4.49c.38-.53,1.55-2.68,1.5-3.52-1.8-.15-.76.05-1.85.19-.63.08-1.52-.1-1.82.34a13.44,13.44,0,0,0-.6,1.56c-.68,1.71-1.77,4.7-3.79,4.88-1,.08-1-.39-1.33-.94Z" transform="translate(-13.04 -7.89)"/><path class="cls-11" d="M65.74,100c.08.05,0,0,.15.06l.19,0a1.21,1.21,0,0,0,.43-.05,12,12,0,0,0,3.55-.16c-.23-.51-1.92,0-2.11-.76.23-.28.32-.08.45-.34.25-.52-.68-.51-1-1.14s0-1.79.13-2.52c.6-3.33,1.41-6.67,2.13-10,.17-.8.35-1.69.52-2.52.09-.44.16-.85.24-1.28s.25-.87-.11-1.17c-.47,0-.49.47-.61.93l-.94,3.66c-.34,1.32-3.07,11.62-3.06,12.17,0,1.08,1.15,1.09,1.31,1.67-.28.86-2.31.55-2.56,1.11.36.25,1,.15,1.32.35Z" transform="translate(-13.04 -7.89)"/><path class="cls-11" d="M75.13,84.31c-.09.55-.22.4.37,1.09,1.29,1.49,3.92,5.15,6,4.84-.1-.29-.26-.36-.47-.59l-8-9c-.12-.12-.17-.15-.28-.28l-.67-.79c-.31-.38-.66-.69-1-1.07L66.5,73.26a2.18,2.18,0,0,0-.2.82c0,.35.14.43.34.65L68.52,77c.82,1,.57.93,1.14.86-.16.61,0,.57.37,1l2,2.35c.84.95,1.78,2.21,2.63,3.15l.51-.09Z" transform="translate(-13.04 -7.89)"/><path class="cls-11" d="M88.17,50.49h6.29c-.1,0,.06.27-.19-.32l-2.47-5.54c-.07-.16-.14-.35-.2-.5l-.43-.93c.14.13-.09.43-.28.88l-2.72,6.42Z" transform="translate(-13.04 -7.89)"/><path class="cls-11" d="M66,76.2a7.59,7.59,0,0,1-1.72,2.33,2.94,2.94,0,0,0-.82,1.2c-.19.78,1.43-.11,1.61-.21.66-.38.95-.79,1.23-.9a9.17,9.17,0,0,1-1.76,2.52c-.73.64-.79.46-1.07,1a4.13,4.13,0,0,0-.61,1.46c.9,0,2.51-1.48,2.84-1.89a18.2,18.2,0,0,0,1.92-2.82c.24-.43.87-1.17.4-1.67-.18-.19-.51-.37-.58-.59a3.36,3.36,0,0,0-.29-.91c-.68-1.16-1.31-.6-2.33-.1-.26.13-.62.21-.71.48a3.91,3.91,0,0,0,1.9.07Z" transform="translate(-13.04 -7.89)"/><path class="cls-12" d="M90.9,44.07c.19-.44.42-.74.28-.88l.43.93c.06.15.13.34.2.5l2.47,5.54c.25.59.09.32.19.32H88.17l2.72-6.42Zm.32-2.54c-.1.44,0,.53,0,.83v.27c-.14-.11-.2-.16-.41-.06.09.16,0,.14.31.18l-.09.13-.83,1.93c-.33.87-.54,1.2-.82,1.9-.2.5-.52,1.05-.47,1.29l-1.15,2.73c.58.08,1.59,0,1.93,0s.18.1.56.11c.91,0,1.78,0,2.7.07l-2.8.15C90,52.28,93,52.71,95.1,51c.22,0,.15-.08.17-.18,0-.3-.19-.22-.48-.25l-3.43-7.77c.62-.09.51.05.81-.37a1.29,1.29,0,0,0,.37-.84c0-.56-.79-.95-1.33-1.09l0,1Z" transform="translate(-13.04 -7.89)"/><path class="cls-11" d="M85.31,40.07a.54.54,0,0,1-.12.66l-.18.21a14.38,14.38,0,0,0,6.06.49l0-.75c-.77-.08-1.94.13-2.6,0s-1.54-.4-2.25-.5c0-.47.43-1.4.41-1.74s-.08-.06-.1-.42.19,0-.13-.77c-.12-.28,0-.15-.2-.38-.64-.66.58-.37-1.84-.84a.09.09,0,0,0,0,.06l-.12.4a2.57,2.57,0,0,1-.2.35c-.21.29-.49.29-.49.68.34-.11.46-.35.72-.58s.6-.1,1,0c-.36.3-1.81.57-1.79,1s.15.15.2.31-.06.09.07.42c.5.36,1.37-.17,2-.23-.51.46-1.78.22-1.67,1,.37.27,1.1,0,1.55-.07-.25.4-.19.13-.11.69l-.12.06-.09.05,0,0Z" transform="translate(-13.04 -7.89)"/><path class="cls-11" d="M65.52,99c-.42-.41-1.61-.6-1.06-1.45.3-.46.34-.17.47-.92a46,46,0,0,1,1.35-5.48c.44-1.4.88-2.79,1.34-4.15.25-.74,1.28-3.58,1.35-4.1-.54.6-2.75,6.32-3.14,7.45-.46,1.33-.87,2.65-1.25,4a18.12,18.12,0,0,1-.88,3.09,1.13,1.13,0,0,0-.39.92,11.74,11.74,0,0,0,2.22.6Z" transform="translate(-13.04 -7.89)"/><path class="cls-11" d="M62.92,88.14c.06-1.17.89-1.74,1.71-2.4a13.53,13.53,0,0,0,2.1-2c.18-.24,3.89-4.89,1.87-5A14,14,0,0,0,67.89,80a20.76,20.76,0,0,1-3.17,4.63c-1,1.06-2.71,2.27-1.81,3.49Z" transform="translate(-13.04 -7.89)"/><path class="cls-13" d="M76.95,47.14c-.25.15-.33.55-.45.8l-.9,2a1.12,1.12,0,0,0-.17.69,1.87,1.87,0,0,1-.26.81c-.44,1-.58.85,1.59.81.22-.43,1.49-4.48,1.05-5.32-.12-.23-.32-.29-.44-.47l-.25.52c-.13.16,0,.06-.17.14Z" transform="translate(-13.04 -7.89)"/><path class="cls-12" d="M81.84,52.3c0-.15.12,0-.09-.14l-.28.11c-.27-.1,0,0-.25-.14l-3.24,0-.05-.49-.08.27c0,.09,0,.26,0,.35h-.51l-.51.08c.14.32.43.19,1.29.19.51,0,1,0,1.47,0l-2.53.19c.26,1,1.3,1.1,2.44.82a6.59,6.59,0,0,0,1.28-.46c.42-.21.76-.45,1.11-.64l0-.2Z" transform="translate(-13.04 -7.89)"/><path class="cls-11" d="M64.28,63.27C64.49,65,66,65,67.3,63a21.22,21.22,0,0,0,1.93-3.85c-.68,0-1.35,1.78-2,2.7a3.9,3.9,0,0,1-1.11,1.26c-.91.6-1,.27-1.88.2Z" transform="translate(-13.04 -7.89)"/><path class="cls-11" d="M70.35,39.51s0,0,0,0,0,0,0,0h.4a23.49,23.49,0,0,0,3,0,10.36,10.36,0,0,1,1-.32l-.18-.62-1,.19c.3-.17.61-.32.89-.49a1,1,0,0,0-.23-.67,9.87,9.87,0,0,0-4,1.91Z" transform="translate(-13.04 -7.89)"/><path class="cls-3" d="M95.1,51C93,52.71,90,52.28,90.17,51.1l2.8-.15c-.92-.06-1.79,0-2.7-.07-.38,0-.28-.06-.56-.11s-1.35,0-1.93,0L88.93,48a3.92,3.92,0,0,0-.63,1.23,7.63,7.63,0,0,0-.54,1.34h-.63c0,.44,1.12,1,1.53,1.19a9.42,9.42,0,0,0,2.2.53c1.48.19,3.81-.46,4.25-1.26Z" transform="translate(-13.04 -7.89)"/><path class="cls-11" d="M69.37,38.77c.21-.1.15-.06.23-.35s.33-1.09.83-.93a.75.75,0,0,1-.29.83c-.25.24-.4.53-.12.83.26-.82.29-.59.58-.86s.33-.78.58-1,.55-.1,1-.46.48-.5,1.08-.46c-.26-1-2.11-.32-2.69.05a2.6,2.6,0,0,0-1.33,1.93c0,.26,0,.22.12.37Z" transform="translate(-13.04 -7.89)"/><path class="cls-11" d="M67.15,67.14A5.31,5.31,0,0,0,71,65.47a9.8,9.8,0,0,0,1.65-3.74c-.39.44-1.26,3-3.73,4.46-.31.18-.53.31-.86.46s-.74.27-.93.5Z" transform="translate(-13.04 -7.89)"/><path class="cls-11" d="M77.92,51.67l.05.49,3.24,0a2.73,2.73,0,0,0-.45-1.07A13.61,13.61,0,0,0,79,50.93c-.73,0-1.29-.18-1.1.74Z" transform="translate(-13.04 -7.89)"/><path class="cls-13" d="M64.15,90.85c.39-1.16.71-2.26,1.15-3.41.22-.58.48-1.08.7-1.59s.61-1,.78-1.52l-1,1.28a8.32,8.32,0,0,0-1.61,5.24Z" transform="translate(-13.04 -7.89)"/><path class="cls-13" d="M66.77,85.82l0,0,0,0,.07-.09.11-.18,1.36-2.54c.28-.54,1.59-2.59,1.2-3.14-.35.08-.35.32-.5.64l-2.32,5.39Z" transform="translate(-13.04 -7.89)"/><path class="cls-11" d="M68.43,46.63a.36.36,0,0,0,.06-.26c0-.32-.11-.29.28-.84.59-.83,1.08-1.1.17-1.91-.47-.42-.11-.71-.06-1.17a.88.88,0,0,0-.55,1.08c.08.23.69.58.58,1-.06.24-.63.61-.78.88-.26.49.15.92.3,1.19Z" transform="translate(-13.04 -7.89)"/><path class="cls-11" d="M64.73,61.17l-.24.9c1.36-.12,2.45-1.65,2.73-2.58-.26.17-.32.33-.52.52s-.37.31-.58.47a3.42,3.42,0,0,1-1.4.7Z" transform="translate(-13.04 -7.89)"/><path class="cls-11" d="M67.2,46.31c.54-1.06.55-.62.93-1.22a1.08,1.08,0,0,0-.28-1.37c-.19-.18,0,0-.18-.14.2,1.24.06,1-.55,1.41s-.34.9.08,1.32Z" transform="translate(-13.04 -7.89)"/><path class="cls-11" d="M65.72,70.7a10.74,10.74,0,0,1-.07,2c-.08.51,0,.39.18.76s.14.51.25.72a7.11,7.11,0,0,0,.27-2,1.66,1.66,0,0,0-.62-1.54Z" transform="translate(-13.04 -7.89)"/><path class="cls-11" d="M72,37.33l-.23,1a8.66,8.66,0,0,0,1.88-1c-.51-1.17-.88-.18-1.65,0Z" transform="translate(-13.04 -7.89)"/><path class="cls-13" d="M76.91,52.24h.79a5.58,5.58,0,0,0,0-2.59,16.15,16.15,0,0,1-.78,2.58Z" transform="translate(-13.04 -7.89)"/><path class="cls-13" d="M85.37,34.38c-.18-.2-.38-.48-.54-.7l0,.76c.1.09-.07.07.19.11l-.22.08v.86c0,.35,0,.16.11.26.22-.1.22-.34.3-.59a1.88,1.88,0,0,0,.18-.79Z" transform="translate(-13.04 -7.89)"/><path class="cls-14" d="M85.31,40.07c-1.06-1.09-1.33,1.43,0,.45v-.45Z" transform="translate(-13.04 -7.89)"/><path class="cls-11" d="M66.51,73l1.3.22a1.34,1.34,0,0,0-1.36-.87l.06.64Z" transform="translate(-13.04 -7.89)"/><path class="cls-13" d="M68.55,37.47c1,.08.22-.35,1.78-1.13-1.25-.38-.87.49-1.78,1.13Z" transform="translate(-13.04 -7.89)"/><path class="cls-13" d="M69.42,46.53c.94-.33.38-1,.19-1.7-.57.66.09,1-.19,1.7Z" transform="translate(-13.04 -7.89)"/><path class="cls-13" d="M64.76,73.84a.94.94,0,0,0-.29-.49c-.16.06,0,0-.13.07l-.63.49a3.24,3.24,0,0,0-.71.6l1.75-.68Z" transform="translate(-13.04 -7.89)"/><path class="cls-11" d="M64.78,70.86s.11.2.14.24l.57.64c.13-.73.13-1.3-.3-1.22a.85.85,0,0,0-.42.34Z" transform="translate(-13.04 -7.89)"/><path class="cls-11" d="M64.21,72c.15.32.6.85,1.15.72a.86.86,0,0,0,.1-.52L64.21,72Z" transform="translate(-13.04 -7.89)"/><path class="cls-13" d="M68.53,39.94a1.09,1.09,0,0,0,.46-.36l-.39-.91a.8.8,0,0,0-.27.58.88.88,0,0,0,.2.7Z" transform="translate(-13.04 -7.89)"/><path class="cls-13" d="M68.18,40.35c.18-.26.07-.41-.15-1-.05-.15,0-.09-.06-.13-.28.39-.33,1.14.21,1.17Z" transform="translate(-13.04 -7.89)"/><path class="cls-13" d="M60,67.13c.24,0,.35-.08.48-.21s.28-.19.23-.51a.86.86,0,0,0-.7.72Z" transform="translate(-13.04 -7.89)"/><path class="cls-13" d="M71,38.6a1.18,1.18,0,0,0,.65-1.09c-.27.06-.26.16-.37.45s-.21.41-.28.64Z" transform="translate(-13.04 -7.89)"/><path class="cls-15" d="M74.82,41.77a3.24,3.24,0,0,0,.07-.8c.08-.12,0,0,.09-.12s0,0,.12-.21c-.64.46,0,.72-.6,1-.23.11-.17,0-.4.2a1.74,1.74,0,0,1,.72-.06Z" transform="translate(-13.04 -7.89)"/><path class="cls-16" d="M91,42.88l.09-.13c-.3,0-.22,0-.31-.18.22-.1.27,0,.41.06v-.27c-.26.15-.47,0-.59.17s.31.33.4.34Z" transform="translate(-13.04 -7.89)"/><path class="cls-14" d="M67.33,42.07a.78.78,0,0,0,0-.4l0-.17c-.15-.3.07.05-.11-.13-.1.22-.27.66.16.7Z" transform="translate(-13.04 -7.89)"/><path class="cls-17" d="M66.95,72.31A1.56,1.56,0,0,0,66.7,72c-.17-.2-.07-.13-.29-.24l0,.43.51.15Z" transform="translate(-13.04 -7.89)"/><path class="cls-7" d="M141.69,102.24H148l3.74,7,3.72-7h6.31l-7.18,12.16v8.76H148.9v-8.76l-7.21-12.16ZM178.24,113l4,1a19.45,19.45,0,0,1-.6,2c-.19.5-.47,1.1-.82,1.79l1.92,1.5c.24.17.54.37.91.61l-2.76,3.58c-.5-.3-1-.65-1.57-1.05s-1-.74-1.46-1a9.92,9.92,0,0,1-2.67,1.45,13.18,13.18,0,0,1-4.21.62q-3.69,0-5.49-1.74a5.65,5.65,0,0,1-1.8-4.22,6,6,0,0,1,1.06-3.38,8,8,0,0,1,3.47-2.69,10.4,10.4,0,0,1-1.38-2.41,5.88,5.88,0,0,1-.38-2.07,4.86,4.86,0,0,1,1.5-3.67,6.36,6.36,0,0,1,4.55-1.44,6.52,6.52,0,0,1,4.57,1.37,4.34,4.34,0,0,1,1.46,3.28,4.93,4.93,0,0,1-.45,2.05,5.22,5.22,0,0,1-1.08,1.6,25.18,25.18,0,0,1-2.26,1.83,33.94,33.94,0,0,0,2.82,2.85,14.67,14.67,0,0,0,.67-1.87Zm-5.9-3.67a5.55,5.55,0,0,0,1.53-1.34,2.31,2.31,0,0,0,.54-1.36,1.58,1.58,0,0,0-.45-1.14,1.87,1.87,0,0,0-2.52.05,1.69,1.69,0,0,0-.49,1.21,4.91,4.91,0,0,0,1.39,2.58Zm-1.83,5.09a5.7,5.7,0,0,0-1.41,1.44,2.52,2.52,0,0,0-.35,1.28,2.6,2.6,0,0,0,.79,1.86,2.77,2.77,0,0,0,2.07.81,5.5,5.5,0,0,0,3.09-1.22q-1.63-1.42-4.19-4.17Zm16.17-12.17h8.49a9.16,9.16,0,0,1,4.06.77,6.84,6.84,0,0,1,2.56,2.21,9.7,9.7,0,0,1,1.46,3.36,17.33,17.33,0,0,1,.46,4.05,15.7,15.7,0,0,1-.68,5.2,8.67,8.67,0,0,1-1.87,3.1,6,6,0,0,1-2.57,1.67,11.85,11.85,0,0,1-3.41.57h-8.49V102.24ZM192.4,107v11.42h1.4a5.36,5.36,0,0,0,2.56-.45,3,3,0,0,0,1.19-1.57,11,11,0,0,0,.43-3.63q0-3.32-1-4.55a3.81,3.81,0,0,0-3.19-1.23Z" transform="translate(-13.04 -7.89)"/></svg>