<?xml version="1.0" encoding="UTF-8"?>
<!DOCTYPE svg PUBLIC "-//W3C//DTD SVG 1.1//EN" "http://www.w3.org/Graphics/SVG/1.1/DTD/svg11.dtd">
<!-- Creator: CorelDRAW X8 -->
<svg xmlns="http://www.w3.org/2000/svg" xml:space="preserve" width="300px" height="300px" version="1.1" style="shape-rendering:geometricPrecision; text-rendering:geometricPrecision; image-rendering:optimizeQuality; fill-rule:evenodd; clip-rule:evenodd"
viewBox="0 0 300 300"
 xmlns:xlink="http://www.w3.org/1999/xlink">
 <defs>
  <style type="text/css">
   <![CDATA[
    .str1 {stroke:#2B2A29;stroke-width:4.90876}
    .str0 {stroke:#2B2A29;stroke-width:1.63616;stroke-linecap:round;stroke-linejoin:round}
    .fil3 {fill:none}
    .fil5 {fill:none;fill-rule:nonzero}
    .fil4 {fill:#FEFEFE}
    .fil0 {fill:#06A29A}
    .fil2 {fill:#FEFEFE;fill-rule:nonzero}
    .fil1 {fill:#1C1B17;fill-rule:nonzero}
   ]]>
  </style>
 </defs>
 <g id="Слой_x0020_1">
  <metadata id="CorelCorpID_0Corel-Layer"/>
  <polygon class="fil0" points="21,170 28,164 154,286 277,164 283,171 154,297 "/>
  <path class="fil1" d="M241 149c0,5 -1,10 -2,15 -2,4 -4,9 -6,13 -3,3 -6,7 -9,9 -4,3 -8,5 -13,6 -5,1 -11,2 -18,2l-30 0 0 -2 10 0 0 -84 -10 0 0 -3 32 0c4,0 7,0 10,1 3,1 6,1 9,3 5,2 10,5 14,9 4,4 7,8 9,13 3,6 4,11 4,18z"/>
  <path class="fil2" d="M226 148c0,-3 0,-6 0,-9 0,-3 -1,-5 -1,-8 0,-4 -2,-8 -3,-12 -2,-4 -5,-7 -8,-9 -2,-1 -4,-2 -7,-2 -2,-1 -5,-1 -8,-1l-6 0 0 84 4 0c3,0 6,-1 8,-1 3,-1 5,-2 7,-3 4,-2 7,-5 9,-9 2,-4 3,-8 4,-13 1,-5 1,-10 1,-17z"/>
  <polygon class="fil0" points="21,130 28,137 154,14 277,136 283,130 154,3 "/>
  <path class="fil0" d="M28 151l254 0c-9,12 -20,23 -27,30l-195 1 -32 -31z"/>
  <polygon class="fil0" points="163,152 283,152 256,180 163,179 "/>
  <path class="fil3 str0" d="M149 173l0 6 -19 0 0 -26 7 0 0 20 12 0zm2 6"/>
  <polygon class="fil4" points="149,173 149,179 130,179 130,153 137,153 137,173 "/>
  <polygon class="fil3 str0" points="181,163 193,163 193,169 181,169 181,173 195,173 195,179 174,179 174,153 194,153 194,159 181,159 "/>
  <polygon class="fil2" points="181,163 193,163 193,169 181,169 181,173 195,173 195,179 174,179 174,153 194,153 194,159 181,159 "/>
  <path class="fil1" d="M156 107c-3,0 -6,1 -8,3 -2,1 -4,4 -6,9l-16 37 0 36 10 0 0 2 -37 0 0 -2 10 0 0 -33 -23 -51 -9 0 0 -3 37 0 0 3 -10 0 20 44 15 -32c1,-4 2,-6 2,-7 0,-2 -1,-4 -2,-5 -2,0 -4,-1 -8,-1l0 -2 25 0 0 2z"/>
  <polygon class="fil4" points="29,152 124,152 126,157 126,160 37,160 "/>
  <polygon class="fil4" points="39,162 126,162 126,165 43,165 "/>
  <polygon class="fil4" points="44,167 126,167 126,170 47,169 "/>
  <polygon class="fil4" points="49,172 126,172 126,173 51,173 "/>
  <polygon class="fil4" points="54,177 126,177 126,175 53,175 "/>
  <polygon class="fil4" points="57,180 126,180 126,178 56,178 "/>
  <polygon class="fil4" points="278,152 242,152 238,160 271,160 "/>
  <polygon class="fil4" points="236,162 269,162 266,165 234,165 "/>
  <polygon class="fil4" points="264,167 235,167 236,170 261,169 "/>
  <polygon class="fil4" points="259,172 238,172 239,173 257,173 "/>
  <polygon class="fil4" points="254,177 241,177 240,175 256,175 "/>
  <polygon class="fil4" points="251,180 243,180 242,178 252,178 "/>
  <polygon class="fil3 str0" points="229,171 225,179 216,179 225,166 217,153 225,153 229,161 234,153 242,153 233,166 242,179 234,179 "/>
  <polygon class="fil2" points="229,171 225,179 216,179 225,166 217,153 225,153 229,161 234,153 242,153 233,166 242,179 234,179 "/>
  <polygon class="fil5 str1" points="154,23 283,151 154,279 25,151 "/>
 </g>
</svg>
